<svg xmlns="http://www.w3.org/2000/svg" xmlns:svg="http://www.w3.org/2000/svg" id="svg2" width="744.094" height="1052.362" version="1.1"><metadata id="metadata7"/><g id="layer4" display="inline"><text id="text3857" x="103.929" y="244.325" fill="#434343" fill-opacity="1" stroke="none" font-family="Bauhaus 93" font-size="57.539" font-stretch="normal" font-style="normal" font-variant="normal" font-weight="bold" letter-spacing="0" text-anchor="start" transform="scale(1.0324093,0.96860809)" word-spacing="0" writing-mode="lr-tb" xml:space="preserve" style="text-align:start;line-height:120.00000477%;-inkscape-font-specification:Bauhaus 93 Bold"><tspan id="tspan3859" x="103.929" y="244.325">pdal</tspan></text></g><g id="layer2" display="inline"><path id="path3003" fill="#b6f2fb" fill-opacity="1" fill-rule="evenodd" stroke="#323232" stroke-dasharray="none" stroke-linecap="butt" stroke-linejoin="miter" stroke-miterlimit="4" stroke-opacity="1" stroke-width=".963" d="m 197.3468,141.33174 a 15.528928,15.528928 0 1 1 -31.05786,0 15.528928,15.528928 0 1 1 31.05786,0 z" transform="matrix(-1.0387412,0,0,1.0387412,393.22524,-63.905737)"/><path id="path3073" fill="#55a9f6" fill-opacity="1" fill-rule="evenodd" stroke="#232323" stroke-dasharray="none" stroke-linecap="butt" stroke-linejoin="miter" stroke-miterlimit="4" stroke-opacity="1" stroke-width=".855" d="m 197.3468,141.33174 a 15.528928,15.528928 0 1 1 -31.05786,0 15.528928,15.528928 0 1 1 31.05786,0 z" transform="matrix(-1.169753,0,0,1.169753,342.92204,-33.895972)"/><path id="path3075" fill="#b6f2fb" fill-opacity="1" fill-rule="evenodd" stroke="#232323" stroke-dasharray="none" stroke-linecap="butt" stroke-linejoin="miter" stroke-miterlimit="4" stroke-opacity="1" stroke-width="1" d="m 158.52448,148.77269 a 4.2057514,4.2057514 0 1 1 -8.41151,0 4.2057514,4.2057514 0 1 1 8.41151,0 z" transform="matrix(-1,0,0,1,384.26161,-62.333932)"/><path id="path3079" fill="#b6f2fb" fill-opacity="1" fill-rule="evenodd" stroke="#232323" stroke-dasharray="none" stroke-linecap="butt" stroke-linejoin="miter" stroke-miterlimit="4" stroke-opacity="1" stroke-width=".927" d="m 205.11125,243.88737 a 8.0879831,8.0879831 0 1 1 -16.17596,0 8.0879831,8.0879831 0 1 1 16.17596,0 z" transform="matrix(-1.0783049,0,0,1.0783049,327.70526,-161.79578)"/><path id="path3081" fill="#2c7fb8" fill-opacity="1" fill-rule="evenodd" stroke="#232323" stroke-dasharray="none" stroke-linecap="butt" stroke-linejoin="miter" stroke-miterlimit="4" stroke-opacity="1" stroke-width=".906" d="m 269.16809,188.88908 a 11.970215,11.970215 0 1 1 -23.94043,0 11.970215,11.970215 0 1 1 23.94043,0 z" transform="matrix(-1.1037735,0,0,1.1037735,480.8321,-26.231392)"/><path id="path3083" fill="#55a9f6" fill-opacity="1" fill-rule="evenodd" stroke="#232323" stroke-dasharray="none" stroke-linecap="butt" stroke-linejoin="miter" stroke-miterlimit="4" stroke-opacity="1" stroke-width=".918" d="m 243.28654,212.18248 a 24.910988,24.910988 0 1 1 -49.82198,0 24.910988,24.910988 0 1 1 49.82198,0 z" transform="matrix(-1.0891203,0,0,1.0891203,430.57541,-102.27246)"/><path id="path3111" fill="#2c7fb8" fill-opacity="1" fill-rule="evenodd" stroke="#232323" stroke-dasharray="none" stroke-linecap="butt" stroke-linejoin="miter" stroke-miterlimit="4" stroke-opacity="1" stroke-width=".906" d="m 269.16809,188.88908 a 11.970215,11.970215 0 1 1 -23.94043,0 11.970215,11.970215 0 1 1 23.94043,0 z" transform="matrix(-1.1037735,0,0,1.1037735,405.30333,-25.168442)"/></g><g id="layer3" display="inline"><path id="path3838" fill="#d6d6d6" fill-opacity="1" fill-rule="evenodd" stroke="#5a5a5a" stroke-dasharray="none" stroke-linecap="butt" stroke-linejoin="miter" stroke-miterlimit="4" stroke-opacity="1" stroke-width=".8" d="m 158.52448,148.77269 a 4.2057514,4.2057514 0 1 1 -8.41151,0 4.2057514,4.2057514 0 1 1 8.41151,0 z" display="inline" transform="matrix(-1,0,0,1,277.86199,9.564221)"/><path id="path3840" fill="#d6d6d6" fill-opacity="1" fill-rule="evenodd" stroke="#5a5a5a" stroke-dasharray="none" stroke-linecap="butt" stroke-linejoin="miter" stroke-miterlimit="4" stroke-opacity="1" stroke-width=".8" d="m 158.52448,148.77269 a 4.2057514,4.2057514 0 1 1 -8.41151,0 4.2057514,4.2057514 0 1 1 8.41151,0 z" display="inline" transform="matrix(-1,0,0,1,312.59339,-4.689847)"/><path id="path3844" fill="#d6d6d6" fill-opacity="1" fill-rule="evenodd" stroke="#5a5a5a" stroke-dasharray="none" stroke-linecap="butt" stroke-linejoin="miter" stroke-miterlimit="4" stroke-opacity="1" stroke-width=".85" d="m 205.11125,243.88737 a 8.0879831,8.0879831 0 1 1 -16.17596,0 8.0879831,8.0879831 0 1 1 16.17596,0 z" display="inline" transform="matrix(-0.94090967,0,0,0.94090967,342.27869,-120.03231)"/><path id="path3846" fill="#d6d6d6" fill-opacity="1" fill-rule="evenodd" stroke="#5a5a5a" stroke-dasharray="none" stroke-linecap="butt" stroke-linejoin="miter" stroke-miterlimit="4" stroke-opacity="1" stroke-width=".742" d="m 205.11125,243.88737 a 8.0879831,8.0879831 0 1 1 -16.17596,0 8.0879831,8.0879831 0 1 1 16.17596,0 z" display="inline" transform="matrix(-1.0783049,0,0,1.0783049,433.52077,-103.18489)"/><path id="path3850" fill="#d6d6d6" fill-opacity="1" fill-rule="evenodd" stroke="#5a5a5a" stroke-dasharray="none" stroke-linecap="butt" stroke-linejoin="miter" stroke-miterlimit="4" stroke-opacity="1" stroke-width=".754" d="m 197.3468,141.33174 a 15.528928,15.528928 0 1 1 -31.05786,0 15.528928,15.528928 0 1 1 31.05786,0 z" display="inline" transform="matrix(-1.0605504,0,0,1.0605504,350.60249,22.364694)"/><path id="path3828" fill="#d6d6d6" fill-opacity="1" fill-rule="evenodd" stroke="#5a5a5a" stroke-dasharray="none" stroke-linecap="butt" stroke-linejoin="miter" stroke-miterlimit="4" stroke-opacity="1" stroke-width=".8" d="m 158.52448,148.77269 a 4.2057514,4.2057514 0 1 1 -8.41151,0 4.2057514,4.2057514 0 1 1 8.41151,0 z" display="inline" transform="matrix(-1,0,0,1,327.34063,-65.939185)"/><path id="path3830" fill="#d6d6d6" fill-opacity="1" fill-rule="evenodd" stroke="#5a5a5a" stroke-dasharray="none" stroke-linecap="butt" stroke-linejoin="miter" stroke-miterlimit="4" stroke-opacity="1" stroke-width=".624" d="m 205.11125,243.88737 a 8.0879831,8.0879831 0 1 1 -16.17596,0 8.0879831,8.0879831 0 1 1 16.17596,0 z" display="inline" transform="matrix(-1.2827378,0,0,1.2827378,395.72688,-226.15381)"/><path id="path3961" fill="#d6d6d6" fill-opacity="1" fill-rule="evenodd" stroke="#5a5a5a" stroke-dasharray="none" stroke-linecap="butt" stroke-linejoin="miter" stroke-miterlimit="4" stroke-opacity="1" stroke-width="1.05" d="m 205.11125,243.88737 a 8.0879831,8.0879831 0 1 1 -16.17596,0 8.0879831,8.0879831 0 1 1 16.17596,0 z" display="inline" transform="matrix(-0.76189307,0,0,0.76189307,266.73335,-110.25136)"/><path id="path3963" fill="#d6d6d6" fill-opacity="1" fill-rule="evenodd" stroke="#5a5a5a" stroke-dasharray="none" stroke-linecap="butt" stroke-linejoin="miter" stroke-miterlimit="4" stroke-opacity="1" stroke-width=".8" d="m 158.52448,148.77269 a 4.2057514,4.2057514 0 1 1 -8.41151,0 4.2057514,4.2057514 0 1 1 8.41151,0 z" display="inline" transform="matrix(-1,0,0,1,379.84063,37.810815)"/></g></svg>